<svg width="115" height="77" viewBox="0 0 115 77" fill="none" xmlns="http://www.w3.org/2000/svg">
<rect y="52.8991" width="115" height="19.5413" rx="9.77064" fill="#1C9AEA"/>
<path d="M62.7271 2.5C63.6623 2.5 64.5124 2.49788 65.2173 2.55469C65.9502 2.61377 66.7422 2.74826 67.5229 3.14062C68.6468 3.70548 69.5657 4.61023 70.144 5.72949C70.5479 6.51131 70.6861 7.30557 70.7466 8.03613C70.8046 8.73652 70.8032 9.58011 70.8032 10.501V20.126C70.8032 21.1303 70.8054 21.7316 70.8423 22.1777C70.8767 22.5937 70.9278 22.649 70.9038 22.6025C70.9714 22.7334 71.071 22.849 71.1958 22.9385L71.3286 23.0186L71.3853 23.0342C71.4515 23.0495 71.576 23.0706 71.7905 23.0879C72.2478 23.1247 72.862 23.127 73.8784 23.127H83.6362C84.5715 23.127 85.4216 23.1248 86.1265 23.1816C86.8594 23.2407 87.6514 23.3752 88.4321 23.7676L88.6401 23.8779C89.6693 24.4468 90.5111 25.3071 91.0532 26.3564C91.4571 27.1383 91.5952 27.9325 91.6558 28.6631C91.7138 29.3633 91.7124 30.2062 91.7124 31.127V40.7529C91.7124 41.6739 91.7138 42.5174 91.6558 43.2178C91.5952 43.9483 91.4571 44.7426 91.0532 45.5244C90.4747 46.6442 89.5554 47.5476 88.4321 48.1123C87.6513 48.5048 86.8595 48.6401 86.1265 48.6992C85.4216 48.756 84.5715 48.7539 83.6362 48.7539H73.8784C72.862 48.7539 72.2478 48.7561 71.7905 48.793C71.576 48.8103 71.4515 48.8314 71.3853 48.8467L71.3286 48.8623C71.1403 48.957 70.9937 49.1044 70.9038 49.2783C70.9278 49.2318 70.8767 49.2872 70.8423 49.7031C70.8054 50.1491 70.8032 50.7499 70.8032 51.7539V61.3799C70.8032 62.3008 70.8046 63.1443 70.7466 63.8447C70.6861 64.5753 70.5479 65.3696 70.144 66.1514C69.5655 67.2712 68.6462 68.1746 67.5229 68.7393C66.7421 69.1318 65.9503 69.2671 65.2173 69.3262C64.5124 69.383 63.6623 69.3809 62.7271 69.3809H52.9692C52.0342 69.3809 51.1847 69.383 50.48 69.3262C49.747 69.2671 48.9551 69.1317 48.1743 68.7393H48.1733C47.0508 68.1748 46.1309 67.2708 45.5522 66.1504C45.1487 65.3688 45.0102 64.5751 44.9497 63.8447C44.8917 63.1444 44.894 62.3008 44.894 61.3799V51.7539C44.894 50.7496 44.8919 50.1482 44.855 49.7021C44.8205 49.2868 44.7685 49.2319 44.7925 49.2783C44.7029 49.1049 44.5564 48.9572 44.3677 48.8623C44.3361 48.8515 44.2134 48.8178 43.9058 48.793C43.4484 48.7561 42.8341 48.7539 41.8179 48.7539H32.061C31.1259 48.7539 30.2757 48.756 29.5708 48.6992C28.8378 48.6401 28.046 48.5048 27.2651 48.1123H27.2642C26.1417 47.5478 25.2227 46.6438 24.644 45.5234C24.2403 44.7417 24.101 43.9483 24.0405 43.2178C23.9825 42.5174 23.9849 41.6739 23.9849 40.7529V31.127C23.9849 30.2062 23.9825 29.3633 24.0405 28.6631C24.101 27.9325 24.2393 27.1383 24.6431 26.3564C25.2215 25.2366 26.1419 24.3322 27.2651 23.7676C28.0459 23.3752 28.8379 23.2407 29.5708 23.1816C30.2756 23.1248 31.1259 23.127 32.061 23.127H41.8179C42.8341 23.127 43.4484 23.1247 43.9058 23.0879C44.3343 23.0534 44.4037 23.001 44.3687 23.0186L44.5015 22.9385C44.6263 22.8489 44.7251 22.7329 44.7925 22.6025L44.8022 22.5635C44.8165 22.5034 44.8378 22.3854 44.855 22.1777C44.8919 21.7316 44.894 21.1303 44.894 20.126V10.501C44.894 9.58011 44.8917 8.73651 44.9497 8.03613C45.0102 7.30558 45.1484 6.51131 45.5522 5.72949C46.1307 4.60965 47.0511 3.70526 48.1743 3.14062C48.955 2.74831 49.747 2.61376 50.48 2.55469C51.1847 2.49789 52.0342 2.5 52.9692 2.5H62.7271Z" stroke="#1C9AEA" stroke-width="5" stroke-miterlimit="2.9238"/>
<path d="M32.3712 59.6405H34.3371L35.6894 62.936H35.7575L37.1098 59.6405H39.0757V65.4587H37.5303V62.0951H37.4848L36.1894 65.4133H35.2575L33.9621 62.0723H33.9166V65.4587H32.3712V59.6405ZM39.8243 65.4587V59.6405H44.0175V60.9133H41.4038V61.9133H43.8016V63.186H41.4038V64.186H44.0061V65.4587H39.8243ZM47.0395 65.4587H44.8009V59.6405H47.0168C47.6153 59.6405 48.1323 59.757 48.5679 59.99C49.0054 60.221 49.3425 60.5544 49.5793 60.99C49.8179 61.4237 49.9372 61.9436 49.9372 62.5496C49.9372 63.1557 49.8189 63.6765 49.5821 64.1121C49.3454 64.5458 49.0101 64.8792 48.5764 65.1121C48.1427 65.3432 47.6304 65.4587 47.0395 65.4587ZM46.3804 64.1178H46.9827C47.2706 64.1178 47.5158 64.0714 47.7185 63.9786C47.923 63.8858 48.0783 63.7258 48.1844 63.4985C48.2923 63.2712 48.3463 62.9549 48.3463 62.5496C48.3463 62.1443 48.2914 61.828 48.1815 61.6008C48.0736 61.3735 47.9145 61.2134 47.7043 61.1206C47.4959 61.0278 47.2403 60.9814 46.9372 60.9814H46.3804V64.1178ZM50.6681 65.4587V59.6405H52.2476V61.9133H54.3385V59.6405H55.9181V65.4587H54.3385V63.186H52.2476V65.4587H50.6681ZM56.6681 65.4587V59.6405H60.8612V60.9133H58.2476V61.9133H60.6453V63.186H58.2476V64.186H60.8499V65.4587H56.6681ZM63.156 65.4587H61.4514L63.3719 59.6405H65.531L67.4514 65.4587H65.7469L64.4742 61.2428H64.4287L63.156 65.4587ZM62.8378 63.1633H66.0423V64.3451H62.8378V63.1633ZM68.0118 65.4587V59.6405H69.5913V64.186H71.9436V65.4587H68.0118ZM71.7277 60.9133V59.6405H76.7845V60.9133H75.0345V65.4587H73.4777V60.9133H71.7277ZM77.379 65.4587V59.6405H78.9585V61.9133H81.0494V59.6405H82.629V65.4587H81.0494V63.186H78.9585V65.4587H77.379Z" fill="white"/>
</svg>
