<svg width="37" height="38" viewBox="0 0 37 38" fill="none" xmlns="http://www.w3.org/2000/svg">
<g clip-path="url(#clip0_13_2652)">
<path d="M24.6666 33.25V30.0833C24.6666 28.4036 24.0169 26.7927 22.8604 25.605C21.704 24.4173 20.1355 23.75 18.5 23.75H7.70829C6.07279 23.75 4.50427 24.4173 3.3478 25.605C2.19133 26.7927 1.54163 28.4036 1.54163 30.0833V33.25M30.8333 12.6667V22.1667M35.4583 17.4167H26.2083M19.2708 11.0833C19.2708 14.5811 16.5099 17.4167 13.1041 17.4167C9.69837 17.4167 6.93746 14.5811 6.93746 11.0833C6.93746 7.58553 9.69837 4.75 13.1041 4.75C16.5099 4.75 19.2708 7.58553 19.2708 11.0833Z" stroke="#000000" stroke-width="4" stroke-linecap="round" stroke-linejoin="round"/>
</g>
<defs>
<clipPath id="clip0_13_2652">
<rect width="37" height="38" fill="white"/>
</clipPath>
</defs>
</svg>
